<?xml version="1.0" encoding="utf-8"?>
<!-- Generator: Adobe Illustrator 16.0.0, SVG Export Plug-In . SVG Version: 6.00 Build 0)  -->
<!DOCTYPE svg PUBLIC "-//W3C//DTD SVG 1.1//EN" "http://www.w3.org/Graphics/SVG/1.1/DTD/svg11.dtd">
<svg version="1.1" id="Layer_1" xmlns="http://www.w3.org/2000/svg" xmlns:xlink="http://www.w3.org/1999/xlink" x="0px" y="0px"
	 width="591px" height="253px" viewBox="0 0 591 253" enable-background="new 0 0 591 253" xml:space="preserve">
<path d="M417.34,75.281v0.56h1.657v-0.747c0-0.187,0.187-0.467,0.56-0.84v-1.119c-0.442,0.022-0.84,0.232-1.119,0.56
	c-0.351,0.396-0.561,0.934-0.561,1.493v0.164L417.34,75.281z M404.554,43.547v-1.119h-2.217v1.119H404.554z M366.684,114.809
	c-1.702-2.543-3.359-4.713-5.109-6.813l0.094,0.117l-5.601-6.673c0-0.748,0.553-1.58,1.656-2.498
	c1.634-1.26,3.453-2.449,5.391-3.522l0.21-0.116l13.37-11.69c1.703-2.638,3.127-5.693,4.105-8.914l0.07-0.257
	c0.887-2.986,1.399-6.439,1.399-9.986c0-0.117,0-0.21,0-0.327v0.022v-2.217c-0.022-3.149-1.308-5.996-3.337-8.072
	c-2.776-2.754-6.112-4.924-9.822-6.348l-0.188-0.07c-6.954-3.569-15.167-5.67-23.87-5.67c-1.004,0-2.007,0.023-2.986,0.094h0.141
	c-8.283,0.77-15.844,2.264-23.124,4.387l0.863-0.21c-8.144,2.356-14.956,4.899-21.536,7.888l1.003-0.42
	c-1.851,1.478-3.982,3.049-6.394,4.713c-2.286,1.586-4.924,3.172-7.677,4.549l-0.374,0.164l-0.56,1.121h0.793
	c0.187,0,0.467-0.188,0.84-0.561h0.094c0.28,0,0.561,0.117,0.746,0.279c0.188,0.211,0.28,0.468,0.28,0.748v0.093l0.561-0.56h0.561
	v0.56c-1.852,1.478-3.608,2.963-5.273,4.457c-1.75,1.54-3.64,3.01-5.646,4.34l-0.188,0.117l0.561,1.12h-0.561l-1.12-0.561
	l-0.56,0.28c-0.327,0.164-0.7,0.28-1.12,0.28v0.56l1.12,1.656c-0.023,0-0.047,0-0.094,0c-0.28,0-0.561-0.116-0.747-0.28
	c-0.21-0.188-0.466-0.279-0.746-0.279c-0.023,0-0.07,0-0.094,0c-0.024,0-0.023,0-0.047,0c-1.119,0-2.146,0.303-3.033,0.862
	l0.022-0.022c-0.793,0.442-1.423,1.072-1.843,1.843l-0.023,0.022l0.561-2.776c1.027-3.57,1.982-8.097,2.707-12.693l0.093-0.677
	L274.47,48.4v-2.217c-1.05-0.677-1.96-1.422-2.775-2.217l-2.218-2.216v-2.776h-0.56c-5.196,8.166-15.587,22.268-31.174,42.303
	c-11.869,14.093-18.177,21.887-18.923,23.38c-2.225,2.598-3.889,4.636-4.994,6.112c-0.7,0.771-1.283,1.705-1.633,2.73l-0.023,0.046
	c-0.583,0.233-1.05,0.607-1.4,1.12c-0.187,0.443-0.279,0.934-0.279,1.471v0.209c-0.374,0-0.561-0.093-0.561-0.279v-0.28
	c-1.213,1.563-2.59,2.917-4.13,4.083l-0.046,0.047c-1.47,1.189-3.244,2.053-5.204,2.497l-0.093,0.022L196,122.996
	c-0.374,0.373-0.561,0.652-0.561,0.84v1.4l1.121-0.561v0.561l-3.338,1.119l-6.673,1.658h-3.452c0,0.373,0.467,0.467,1.399,0.279
	c0.935-0.188,1.026-0.093,0.28,0.28l-4.457,0.56c-0.631,0.233-1.354,0.35-2.1,0.35c-0.351,0-0.677-0.022-1.004-0.069h0.047
	c-0.537-0.187-1.027-0.467-1.4-0.84h-0.561l-3.896,1.12c0.372-1.479-3.897-7.078-12.81-16.801c0.209-1.517,1.025-2.799,2.192-3.617
	h0.022c2.123-1.702,4.48-3.266,7-4.596l0.233-0.117l18.363-16.146c4.55-6.977,7.233-15.518,7.233-24.688c0-0.14,0-0.256,0-0.396
	v0.023l-0.561-2.777c-0.396-4.247-2.24-8.025-5.018-10.873c-3.592-3.547-7.84-6.463-12.529-8.518l-0.258-0.092
	c-3.92-2.428-8.492-4.271-13.393-5.25l-0.257-0.048c-5.787-1.213-12.46-1.89-19.272-1.89c-0.748,0-1.518,0-2.264,0.023h0.117
	c-11.62,1.633-21.723,3.779-31.57,6.532l1.703-0.396c-10.663,2.917-19.624,6.16-28.28,9.963l1.283-0.514
	c-2.45,2.006-5.18,3.942-8.027,5.67l-0.327,0.187c-3.329,2.038-6.86,4.169-10.593,6.394l-1.12,1.656c0.42,0,0.793-0.117,1.144-0.279
	H64.4c0.327-0.164,0.7-0.28,1.12-0.28h0.56h0.093c0.28,0,0.56,0.116,0.747,0.28c0.164,0.209,0.28,0.467,0.28,0.746v0.047l1.12-1.119
	h1.12v1.119c-2.146,2.146-4.41,4.153-6.79,5.998l-0.163,0.117c-2.17,1.702-4.597,3.336-7.164,4.829l-0.303,0.163l0.56,1.657h-0.56
	l-1.657-0.56v0.092c0,0.141-0.047,0.258-0.14,0.351c-0.093,0.093-0.21,0.14-0.35,0.14c-0.023,0-0.07,0-0.093,0
	c-0.63,0.07-1.19,0.28-1.68,0.561h0.023v0.561l1.657,1.655h-1.12c-0.443-0.022-0.84-0.233-1.12-0.56
	c-2.146,0.676-3.99,1.609-5.646,2.822l0.046-0.047c-1.563,1.213-2.87,2.707-3.874,4.387l-0.046,0.07l0.56,1.12
	c0.677-0.653,1.4-1.26,2.17-1.819l0.047-0.047c0.793-0.584,1.727-1.051,2.707-1.377l0.07-0.022v1.657
	c-0.42,0-0.793,0.117-1.143,0.279h0.023c-0.42,0.233-0.793,0.514-1.12,0.84l1.656,2.217c1.54-1.541,3.173-3.01,4.877-4.363
	l0.117-0.094c1.633-1.33,3.477-2.612,5.367-3.779l0.233-0.117h0.303c0.816,0,1.563,0.21,2.24,0.583l-0.023-0.022l0.84,0.56h1.657
	c4.176-3.149,8.913-6.207,13.86-8.89l0.606-0.303c4.293-2.357,9.614-4.877,15.074-7.095l1.073-0.373l1.12,1.12
	c-1.851,2.971-3.15,4.457-3.897,4.457v0.21c0,0.537,0.093,1.026,0.303,1.493v-0.023c0.233,0.42,0.514,0.793,0.84,1.12
	c-4.69,14.49-9.59,26.507-15.19,38.104l0.77-1.773c-18.667,45.477-37.124,82.997-57.75,119.141l2.637-5.018
	c0,0.42,0.116,0.793,0.28,1.145v-0.023c0.14,0.326,0.467,0.56,0.84,0.56c1.307-0.047,2.543-0.35,3.64-0.862L25.76,224.8
	c1.19-0.442,2.193-1.097,3.08-1.866l1.12,0.561v1.12h1.12l1.657-0.562l0.28,0.28c0.21,0.188,0.467,0.28,0.747,0.28h0.093v1.12
	c0,1.188-0.21,2.355-0.583,3.405l0.023-0.068c-0.443,1.283-1.003,2.38-1.704,3.383l0.023-0.047c-1.05,1.377-1.96,2.917-2.73,4.573
	l-0.07,0.163c-0.676,1.518-1.26,3.29-1.633,5.134l-0.023,0.163V243h1.12c2.66-2.684,5.11-5.601,7.327-8.68l0.14-0.211
	c2.147-2.894,4.107-6.184,5.693-9.684l0.14-0.351c9.006-2.543,16.333-5.086,23.45-8.003l-1.446,0.536
	c6.875-2.784,13.463-5.662,19.763-8.634c3.687-0.022,7.233-0.63,10.547-1.727l-0.233,0.069c3.733-1.189,6.953-2.894,9.823-5.063
	l-0.07,0.069v-1.12l-3.896,1.12h-0.56v-0.561c2.847-0.42,5.367-0.979,7.817-1.75l-0.35,0.094c2.707-0.841,5.017-1.772,7.21-2.894
	l-0.257,0.116c8.657-7.21,18.293-14.35,28.304-20.953l1.213-0.747c11.526-7.536,20.768-17.688,27.066-29.609l0.21-0.442l2.218-0.56
	h0.116c0.28,0,0.513,0.092,0.724,0.256c0.209,0.188,0.467,0.279,0.746,0.279h0.094h0.094c0.279,0,0.561-0.115,0.747-0.279
	c0.21-0.188,0.466-0.279,0.747-0.279h0.093v-0.281c0-0.186,0.187-0.279,0.56-0.279h3.338l5.6-1.119h2.217l0.561,1.656
	l-23.918,37.637l-5.6,6.113l-2.777,8.354h0.561l2.777-1.12l-1.121,3.337l1.121,2.24h-0.233c-0.187,0-0.28,0.187-0.28,0.56v0.562
	l1.12-0.562c1.851-1.104,2.591-2.217,2.218-3.336h3.336v0.561c-0.373,0-0.748,0.279-1.121,0.84c-0.35,0.537-0.56,1.167-0.56,1.867
	h0.56c7.141-7.91,13.813-16.567,19.811-25.737l0.49-0.816c9.1-13.361,17.92-25.604,26.46-36.727
	c-0.373-2.225,8.532-5.382,26.717-9.473h0.56c-0.022,7.442-1.655,14.513-4.597,20.836l0.141-0.303
	c-0.724,1.445-1.307,3.125-1.634,4.875l-0.022,0.116l-1.12,5.601c-1.026,2.008-1.891,4.316-2.449,6.743l-0.047,0.21
	c-0.562,2.411-1.184,4.729-1.867,6.953l-6.113,21.7c-1.851,4.822-3.607,10.019-5.272,15.587c-1.423,4.479-2.87,10.29-4.013,16.193
	l-0.164,1.05v0.094c0,0.279,0.117,0.561,0.279,0.746c0.211,0.188,0.467,0.28,0.747,0.28h0.093h0.561l1.119-0.56h0.561l-0.561-1.12
	h2.777h0.116c0.654,0,1.19-0.49,1.284-1.12c0.21-0.84,0.513-1.587,0.863-2.287l-0.023,0.07c0-0.117,0-0.28,0-0.421
	c0-1.05,0.21-2.054,0.583-2.964l-0.022,0.048c0.304-0.631,0.677-1.189,1.119-1.656c0.421-2.102,0.91-3.874,1.493-5.602l-0.093,0.305
	c0.561-1.664,1.182-3.423,1.866-5.273c0.467-2.264,1.05-4.224,1.75-6.113l-0.093,0.28c0.77-2.146,1.517-3.896,2.355-5.577
	l-0.14,0.304c0.909-3.942,1.959-7.304,3.243-10.547l-0.188,0.515c0.934-2.226,1.555-3.337,1.866-3.337l0.56,0.56l-1.658,4.459
	c-1.479,6.688-3.05,12.811-4.713,18.363c-1.665,5.554-3.424,10.936-5.273,16.146l1.12,2.217h0.56
	c11.435-26.507,22.844-59.267,32.083-92.937l1.308-5.577c0.42-2.007,1.189-3.78,2.264-5.343l-0.023,0.046
	c1.073-1.633,2.381-3.011,3.852-4.153l0.046-0.022l-0.56-1.12c0.723-0.374,1.329-0.747,1.937-1.167l-0.07,0.047
	c0.537-0.351,0.98-0.724,1.4-1.12l-1.12-0.561c-0.957-0.442-2.076-0.84-3.22-1.096l-0.117-0.023l7.233-31.174l1.119-1.119
	c0.468-0.443,1.026-0.817,1.635-1.098l0.046-0.022v1.657c-0.022,0-0.046,0-0.093,0c-0.28,0-0.562,0.117-0.747,0.279
	c-0.21,0.188-0.468,0.28-0.746,0.28c-0.023,0-0.07,0-0.095,0l1.12,2.216c1.479-1.478,2.87-2.775,4.177-3.896
	c1.214-1.05,2.591-1.983,4.061-2.73l0.117-0.046h0.163c0.583,0,1.097,0.21,1.493,0.561l0.561,0.56h1.12
	c3.267-2.521,6.93-4.923,10.779-7.022l0.42-0.211c3.406-1.937,7.442-3.826,11.62-5.39l0.606-0.21l1.119,1.12
	c-1.478,2.226-2.59,3.337-3.336,3.337c0,0.42,0.116,0.793,0.279,1.145l0.279,0.537c-1.609,6.159-3.337,11.27-5.319,16.215
	l0.326-0.91c-1.852,4.636-3.889,9.187-6.112,13.65c-6.689,16.707-13.644,32.262-20.86,46.668
	c-7.218,14.403-14.73,28.714-22.54,42.933c0.537-1.05,1.167-1.983,1.892-2.8l-0.023,0.022c0.14,0,0.42,0.188,0.84,0.562
	c1.097-0.352,2.03-0.747,2.917-1.167l-0.117,0.047l2.218-1.12h0.56v1.12h1.12l1.12-0.562c0,0.373,0.373,0.562,1.12,0.562v1.12
	c0,0.815-0.211,1.586-0.584,2.238l0.023-0.022l-1.12,2.217c-0.747,1.104-1.484,2.311-2.217,3.617c-0.7,1.235-1.26,2.66-1.61,4.152
	l-0.022,0.116v1.12h1.12c1.852-2.225,3.718-4.542,5.601-6.953c1.796-2.311,3.29-4.993,4.387-7.84l0.069-0.21
	c6.674-1.634,12.297-3.454,17.71-5.601l-0.91,0.326c5.196-2.037,10.205-4.169,15.027-6.394c2.8-0.023,5.46-0.537,7.934-1.446
	l-0.164,0.046c2.777-1.025,5.182-2.427,7.28-4.198l-0.023,0.021v-0.56l-2.775,1.12h-0.562v-0.562c2.03,0,3.943-0.42,5.693-1.166
	l-0.093,0.047c1.851-0.747,3.516-1.485,4.993-2.218c5.194-4.074,9.745-7.513,13.649-10.313s6.97-4.932,9.193-6.394
	c6.953-4.76,12.855-10.478,17.663-17.058l0.14-0.209c3.127-4.223,5.018-9.521,5.018-15.26c0-0.305,0-0.631-0.023-0.935v0.047
	L366.684,114.809z M363.906,115.928v3.967c0,0.746-0.188,1.213-0.561,1.399l-0.56,0.28l-1.074-7.28l1.657,0.841
	C363.674,115.273,363.906,115.578,363.906,115.928L363.906,115.928z M49.396,81.977h-0.56v-1.119l2.777-0.561v0.561
	c-0.28,0.326-0.677,0.537-1.12,0.56C50.05,81.439,49.653,81.65,49.396,81.977z M35.467,221.697c-0.514-0.28-1.12-0.561-1.773-0.793
	l-0.117-0.023c-0.56-0.187-1.19-0.28-1.843-0.28h-0.023l-0.42,0.28l-0.28,0.28v-2.287c0.023-0.373,0.117-0.747,0.28-1.05v0.022
	c0.187-0.374,0.653-0.561,1.4-0.561c0.374,0,0.7,0.233,0.84,0.561c0.187,0.443,0.28,0.934,0.28,1.471v0.21l1.867-2.776
	c0.49-0.677,1.12-1.237,1.843-1.657l0.023-0.022l1.657,0.561c-0.304,1.681-0.793,3.173-1.447,4.573l0.046-0.117
	c-0.396,0.935-1.283,1.61-2.333,1.657V221.697z M184.66,65.27c-0.374,0-0.84-0.465-1.4-1.399c-0.56-0.933-1.392-2.504-2.496-4.713
	v-1.656c0.746,0,1.485,0.552,2.217,1.656c0.84,1.446,1.446,3.127,1.656,4.946v0.07L184.66,65.27z M182.98,50.244l-0.561,1.12
	l-20.463-8.354c13.689,0.358,20.72,2.77,21.093,7.233L182.98,50.244L182.98,50.244z M97.277,123.627H94.5v-1.12l2.777-0.56V123.627z
	 M95.06,79.107h0.56v2.217c-0.374,0-0.747,0.279-1.12,0.84c-0.513,0.7-1.05,1.307-1.657,1.867v-1.12
	c0.607-0.56,1.144-1.167,1.633-1.82l0.023-0.047c0.303-0.396,0.513-0.862,0.56-1.399L95.06,79.107L95.06,79.107z M88.923,93.574
	l0.56,2.775h-1.12v-2.775H88.923z M85.586,98.566h1.727v0.304c0,0.817-0.21,1.563-0.583,2.239l0.023-0.022
	c-0.35,0.513-0.91,0.841-1.563,0.841c-0.046,0-0.07,0-0.117,0h-0.56c0.374-0.373,0.653-0.863,0.84-1.377v-0.022
	c0.14-0.49,0.21-1.027,0.21-1.61c0-0.093,0-0.188,0-0.279v0.022L85.586,98.566z M83.37,105.801h1.12v0.561l-1.656,2.216h-1.12v-0.56
	c0.443-0.023,0.84-0.233,1.12-0.561c0.35-0.396,0.56-0.934,0.56-1.494c0-0.046,0-0.115,0-0.163L83.37,105.801L83.37,105.801z
	 M81.153,111.938l-0.56,3.336h-0.56l-0.56-3.336H81.153z M57.727,178.274c-0.28,1.982-0.77,3.757-1.447,5.437l0.047-0.163
	c-0.56,1.244-1.027,1.866-1.4,1.866v-1.12c0-0.093,0-0.187,0-0.303c0-1.214,0.303-2.357,0.863-3.36l-0.023,0.047
	C56.35,179.768,57.003,178.974,57.727,178.274z M53.27,187.747v0.561c0,0.421-0.117,0.794-0.28,1.145v-0.023
	c-0.14,0.326-0.466,0.561-0.84,0.561v-1.12c0.023-0.746,0.467-1.376,1.097-1.656h0.023V187.747z M52.15,206.671h2.217v0.561
	c-0.28,0.326-0.677,0.536-1.12,0.561s-0.84,0.233-1.12,0.56h-1.12c0-0.022,0-0.047,0-0.093c0-0.279,0.116-0.561,0.28-0.747
	L52.15,206.671z M113.937,187.747c-4.075,1.852-7.972,3.796-11.69,5.834c-3.85,2.1-7.14,4.223-10.243,6.557l0.21-0.164
	c-12.989,4.449-19.483,7.233-19.483,8.354l-12.81,5.273c-4.48,1.797-8.167,3.569-11.737,5.554l0.537-0.28
	c-0.537-0.047-1.003-0.257-1.4-0.56c-0.537-0.352-0.98-0.725-1.4-1.12c0-0.023,0-0.023,0-0.047c0-1.12,0.303-2.146,0.863-3.033
	l-0.023,0.022c0.653-1.026,1.494-1.844,2.474-2.474l0.023-0.023h0.7h0.233c0.91,0,1.797,0.095,2.637,0.305l-0.07-0.023
	c0.84,0.21,1.586,0.514,2.287,0.863l-0.07-0.023c1.478-0.747,3.143-1.484,4.994-2.217c1.75-0.7,3.827-1.283,5.95-1.633l0.164-0.023
	v-1.119h-4.457c1.587-0.98,3.5-2.008,5.483-2.917l0.35-0.141c1.657-0.794,3.78-1.634,5.95-2.355l0.466-0.142h2.777v0.562
	c-1.68,0.303-3.173,0.793-4.573,1.445l0.117-0.047c-1.104,0.562-1.657,1.184-1.657,1.867v0.093c0,0.28,0.117,0.562,0.28,0.747
	c0.21,0.188,0.467,0.28,0.747,0.28h0.093c1.283-0.584,2.38-1.214,3.43-1.914l-0.07,0.047l1.12-0.84
	c16.683-6.813,30.963-14.467,44.333-23.403l-0.91,0.561v1.12c0,0.374-0.468,0.996-1.4,1.867c-1.4,1.307-2.94,2.495-4.597,3.547
	l-0.14,0.068L113.937,187.747z M77.233,199.974c1.82-0.466,3.407-1.05,4.9-1.727l-0.187,0.07c1.61-0.7,3.01-1.634,4.177-2.776h0.093
	c0.28,0,0.56,0.116,0.747,0.279l0.84,0.841c-1.851,0.746-3.609,1.485-5.273,2.216c-1.664,0.731-3.235,1.471-4.713,2.217h-0.583
	L77.233,199.974L77.233,199.974z M136.221,154.334l-18.363,14.467c-2.972,2.226-6.223,4.449-9.753,6.673
	c-3.197,2.055-6.93,4.085-10.827,5.882l-0.583,0.232c-11.807,7.489-25.41,14.069-39.737,19.063l-1.4,0.42h-0.56
	c0.374-2.599,10.025-22.454,28.957-59.569c7.957-1.26,14.887-2.917,21.607-5.017l-1.073,0.28c7.676-2.334,13.954-4.69,20.043-7.397
	l-1.12,0.442h3.336c0.793,0,1.563-0.092,2.287-0.303l-0.07,0.023c0.677-0.188,1.423-0.28,2.218-0.28h0.022
	c3.08,0,6.043,0.513,8.797,1.446l-0.187-0.046c2.729,0.887,5.063,2.31,6.977,4.177l0.561,2.775c-1.61,4.363-3.5,8.145-5.74,11.645
	l0.14-0.234c-1.33,2.287-3.243,4.084-5.53,5.25l-0.07,0.047L136.221,154.334z M100.613,134.29h2.777v0.56h-2.777V134.29z
	 M141.82,127.059h2.217l2.497,1.655c0.56,0.374,0.84,0.747,0.84,1.12v0.561c-0.022,0-0.022,0-0.046,0
	c-1.12,0-2.146-0.304-3.033-0.863l0.023,0.023c-0.957-0.561-1.773-1.168-2.497-1.867L141.82,127.059L141.82,127.059z
	 M147.934,94.227c-2.599,1.852-5.195,3.795-7.793,5.834c-2.265,1.819-4.808,3.569-7.49,5.109l-0.303,0.163
	c-4.178,1.12-7.701,2.356-11.084,3.827l0.514-0.188c-5.195,2.039-12.428,5.103-21.699,9.193c0-0.023,0-0.047,0-0.093
	c0-0.14-0.047-0.257-0.14-0.351c-0.093-0.093-0.21-0.14-0.35-0.14c-0.023,0-0.07,0-0.093,0h-2.24v-1.12
	c0.42-2.1,0.91-3.873,1.493-5.6l-0.093,0.303c0.63-1.797,1.47-3.359,2.52-4.76l-0.023,0.047c0.677-3.547,1.423-6.533,2.38-9.45
	l-0.14,0.537c0.747-2.224,1.485-3.522,2.216-3.896l14.934-33.951c-0.374-2.223,2.784-3.889,9.474-4.992h2.217v2.217
	c2.217-0.561,4.97-1.05,7.746-1.377l0.304-0.023c2.038-0.187,3.43-0.279,4.177-0.279c1.54-0.303,3.337-0.49,5.157-0.49
	c3.032,0,5.95,0.49,8.68,1.376l-0.187-0.047c2.824,0.935,4.899,3.384,5.272,6.37v0.047h1.12v-3.896h1.167
	c1.494,0.746,2.8,1.68,3.897,2.776c1.05,1.05,1.843,2.356,2.216,3.851l0.022,0.045v0.188c0,1.354-0.303,2.637-0.863,3.756
	l0.023-0.046c-0.677,1.283-1.517,2.38-2.497,3.336c-0.374,0-0.7-0.233-0.84-0.56c-0.187-0.443-0.28-0.934-0.28-1.471
	c0-0.07,0-0.14,0-0.209h-1.656l-0.561,4.457c-5.941,8.913-10.398,13.557-13.369,13.93c-0.841,1.47-1.75,2.752-2.801,3.92
	l0.023-0.023c-0.748,0.747-1.299,1.12-1.657,1.12L147.934,94.227z M157.407,117.584c-0.07,0-0.14,0-0.21,0
	c-0.537,0-1.027-0.117-1.494-0.303h0.023l-1.658-0.84v-1.657h1.658l2.776,1.657c0,0.42-0.116,0.793-0.28,1.143v-0.023
	c-0.14,0.328-0.466,0.561-0.84,0.561L157.407,117.584z M166.855,129.273l1.658,0.841c0.326,0.14,0.56,0.466,0.56,0.84h-1.12
	l-1.12,0.56v-2.777L166.855,129.273z M167.417,134.874v-0.56h1.657L167.417,134.874z M171.874,139.867
	c0.793,0,1.563-0.094,2.287-0.303l-0.07,0.022l3.337-0.84v0.56l-6.113,1.656v-1.119L171.874,139.867z M178.01,142.668
	c-1.189,0-2.333,0.094-3.453,0.303l0.117-0.022c-1.003,0.188-2.17,0.28-3.336,0.28v-0.561l5.6-1.656l2.218-0.561l0.56,1.119
	c-0.747,0-1.027,0.094-0.84,0.279c0.188,0.188-0.109,0.451-0.887,0.795L178.01,142.668z M183.609,140.987h-0.56
	c-0.022,0-0.046,0-0.093,0c-0.28,0-0.561-0.116-0.747-0.28l-0.327-0.279l1.657-0.561h0.56l0.28,0.279
	c0.187,0.211,0.28,0.468,0.28,0.748v0.093H183.609z M198.637,124.841v-0.56l2.776-1.12v1.12h-2.847L198.637,124.841z
	 M214.783,223.938v-1.656h1.119l0.281,0.279c0.187,0.21,0.279,0.467,0.279,0.746v0.094v0.561l-1.656,0.561L214.783,223.938z
	 M226.474,128.737h-1.656c-0.443,0.42-1.003,0.7-1.634,0.84h-0.022c-0.747,0.187-1.673,0.466-2.777,0.84l-1.119,0.56h-0.561
	l-0.28-0.279c-0.256-0.21-0.42-0.514-0.42-0.863l7.233-1.656l2.217-1.121l1.12,0.561c-0.373,0.373-0.863,0.652-1.377,0.84h-0.022
	c-0.421,0.163-0.887,0.256-1.399,0.279L226.474,128.737L226.474,128.737z M232.073,127.081v-0.56h0.094
	c0.279,0,0.56-0.117,0.746-0.28l0.84-0.841l4.994-1.119v0.56c-1.479,0.373-2.777,0.747-3.897,1.12l-3.336,1.12H232.073z
	 M233.193,115.881c-0.28,0.327-0.678,0.537-1.12,0.561c-0.023,0-0.047,0-0.093,0c-0.142,0-0.258,0.046-0.352,0.14
	c-0.093,0.095-0.14,0.21-0.14,0.351v0.092c0-0.022,0-0.045,0-0.092c0-0.141-0.047-0.256-0.142-0.351
	c-0.093-0.093-0.21-0.14-0.35-0.14c-0.023,0-0.07,0-0.094,0c-0.63,0.07-1.189,0.279-1.681,0.56h0.023
	c-0.373-0.374,0.459-0.926,2.497-1.657c2.037-0.73,5.102-1.656,9.193-2.777l1.119-0.56l0.561,1.12c-1.703,0.7-3.92,1.471-6.207,2.1
	l-0.489,0.117c-0.817,0.256-1.797,0.467-2.801,0.584h-0.069L233.193,115.881z M247.66,100.294c-0.21,2.87-1.004,5.53-2.264,7.888
	l0.047-0.094c-1.051,1.797-2.87,3.033-4.971,3.337h-0.047v-0.56l-3.896,1.656l-1.12,0.561H233.1l-0.56-1.657
	c2.598-4.075,5.195-7.972,7.793-11.69c2.777-3.967,5.53-7.42,8.447-10.709l-0.095,0.117l1.12,0.56v0.56v0.094
	c0,1.843-0.21,3.617-0.583,5.343l0.023-0.163c-0.397,1.82-0.957,3.406-1.704,4.923l0.047-0.117L247.66,100.294z M273.257,78.571
	h-0.561v-1.12h2.217v0.561c-0.42,0-0.793,0.116-1.145,0.279h0.023L273.257,78.571z M262.78,184.341
	c-0.515-0.022-0.98-0.116-1.425-0.279h0.023c-0.56-0.188-1.188-0.279-1.843-0.279h-0.023v-1.657c0.023-0.443,0.233-0.84,0.561-1.12
	c0.442,0.023,0.84,0.233,1.12,0.562c0.325,0.278,0.537,0.677,0.56,1.12c0.374-0.725,0.747-1.33,1.167-1.938l-0.047,0.07
	c0.42-0.606,0.98-1.073,1.634-1.4h0.023l1.12,0.562c-0.352,1.445-0.725,2.637-1.19,3.825l0.07-0.187
	c-0.374,0.934-0.927,1.399-1.657,1.399L262.78,184.341z M375.597,65.762l-0.84-1.121c-0.724-1.119-1.354-2.402-1.82-3.779
	l-0.047-0.141v-0.56c0.374,0,0.841,0.374,1.4,1.12c0.653,0.957,1.144,2.076,1.4,3.29v0.069L375.597,65.762z M374.477,54.094
	l-0.56,1.12l-15.587-6.673c4.224,0.141,8.213,0.816,12.017,1.96l-0.327-0.094c2.613,1.026,4.107,2.271,4.48,3.733L374.477,54.094z
	 M309.446,109.814h-2.216v-0.561h2.216V109.814z M307.767,76.4h0.561v1.658c-0.746,0-1.485,0.738-2.216,2.215v-1.119
	c0.326-0.327,0.605-0.7,0.84-1.098v-0.022L307.767,76.4z M303.31,86.994v2.217h-0.56v-2.217H303.31z M300.533,90.891h1.12
	c0,1.852-0.373,2.777-1.12,2.777h-0.561c0-0.42,0.116-0.793,0.279-1.145v0.023c0.141-0.373,0.21-0.816,0.21-1.26
	c0-0.141,0-0.303-0.022-0.443v0.023L300.533,90.891z M298.877,96.491h0.561v0.56l-1.12,1.657h-1.12v-0.56
	c0.747,0,1.214-0.188,1.399-0.561c0.116-0.279,0.188-0.605,0.188-0.957c0-0.07,0-0.14,0-0.21L298.877,96.491z M297.22,101.507
	l-0.56,2.218v-2.218H297.22z M279.3,151.627c-0.746,3.33-1.484,5.195-2.217,5.602v-1.121c0.022-0.909,0.233-1.772,0.584-2.543
	l-0.023,0.048c0.304-0.863,0.888-1.541,1.634-1.962h0.022V151.627z M275.94,158.885v0.561v0.093c0,0.28-0.117,0.562-0.28,0.747
	l-0.28,0.279h-0.56v-0.561c-0.023-0.07-0.023-0.14-0.023-0.232c0-0.258,0.093-0.514,0.279-0.678
	c0.188-0.187,0.442-0.303,0.724-0.303c0.047,0,0.117,0,0.163,0.023L275.94,158.885z M275.38,173.352h1.12v0.561l-1.12,0.56h-1.12
	c0-0.747,0.188-1.119,0.562-1.119L275.38,173.352L275.38,173.352z M321.58,158.885c-2.971,1.478-5.85,2.963-8.634,4.456
	c-3.126,1.681-5.764,3.337-8.283,5.156l0.21-0.14c-4.363,1.26-7.956,2.59-11.456,4.13l0.606-0.233
	c-2.411,1.104-3.617,1.844-3.617,2.217l-9.474,4.178c-3.384,1.47-6.112,2.869-8.772,4.409l0.42-0.232
	c-0.327-0.327-0.7-0.606-1.097-0.84h-0.023c-0.42-0.233-0.793-0.515-1.12-0.84c0-0.095,0-0.188,0-0.305
	c0-0.815,0.21-1.563,0.584-2.239l-0.022,0.022c0.42-0.605,0.979-1.073,1.633-1.398h0.022c0.373-0.374,0.653-0.562,0.84-0.562h0.28
	h0.023c0.653,0,1.283,0.094,1.89,0.304l-0.047-0.022c0.537,0.187,1.027,0.467,1.4,0.84c1.188-0.606,2.565-1.19,4.014-1.61
	l0.163-0.047c1.244-0.373,2.637-0.746,4.177-1.119l0.561-1.12h-3.338c1.19-0.771,2.567-1.517,3.99-2.146l0.188-0.07
	c1.33-0.605,2.894-1.189,4.526-1.609l0.21-0.047l2.218-0.561v0.561c-1.283,0.279-2.382,0.677-3.454,1.167l0.117-0.048
	c-0.725,0.374-1.283,0.935-1.657,1.635v0.022v0.093c0,0.28,0.117,0.562,0.28,0.747c0.209,0.188,0.467,0.28,0.746,0.28h0.094
	l2.497-1.657c0.56-0.373,0.84-0.746,0.84-1.12c12.787-4.97,23.775-10.78,34.021-17.64l-0.606,0.396v1.119l-1.399,1.121
	c-1.12,0.909-2.101,1.819-3.057,2.775L321.58,158.885z M293.767,167.774h0.188c1.354,0,2.637-0.305,3.757-0.863l-0.047,0.022
	c1.307-0.631,2.403-1.261,3.454-1.937L301,165.066h0.094c0.279,0,0.561,0.117,0.746,0.281l0.28,0.278
	c-1.493,0.374-2.776,0.841-4.015,1.447l0.117-0.047c-1.307,0.63-2.402,1.26-3.454,1.937l0.117-0.068h-0.561v-1.12H293.767
	L293.767,167.774z M338.847,133.264l-13.93,11.2c-2.193,1.845-4.644,3.57-7.21,5.134l-0.257,0.141
	c-2.784,1.665-5.662,3.234-8.634,4.714c-8.913,5.39-19.203,10.289-29.983,14.093l-1.188,0.373h-0.562
	c0.374-1.851,7.607-16.886,21.7-45.104c5.568-1.104,10.856-2.402,15.867-3.896c5.81-1.75,10.71-3.664,15.398-5.88l-0.652,0.279
	h5.601h0.021c2.287,0,4.48,0.421,6.487,1.168l-0.14-0.047c2.239,0.841,4.176,1.983,5.88,3.36l-0.047-0.022l-0.562,1.656
	c-0.909,3.291-2.146,6.138-3.71,8.797l0.094-0.164c-1.025,1.728-2.474,3.104-4.177,4.061l-0.047,0.023L338.847,133.264z
	 M311.594,118.237h2.216v0.56h-2.216V118.237z M343.326,112.639h1.587c0.63,0.303,1.189,0.676,1.657,1.119
	c0.325,0.28,0.535,0.678,0.56,1.12v0.56h-0.56c-0.7,0-1.33-0.209-1.892-0.56h0.023c-0.606-0.42-1.073-0.979-1.399-1.633v-0.022
	L343.326,112.639z M347.783,87.602c-1.728,1.75-3.641,3.289-5.717,4.644l-0.141,0.069c-2.24,1.424-4.152,2.801-5.974,4.271
	l0.117-0.093c-4.822,1.479-9.279,2.963-13.37,4.457c-4.737,1.727-8.587,3.406-12.32,5.297l0.63-0.28l-0.278-0.28
	c-0.211-0.187-0.468-0.279-0.747-0.279c-0.023,0-0.07,0-0.095,0H309.4v-1.12c0.373-1.478,0.746-2.776,1.118-3.896
	c0.443-1.285,1.005-2.381,1.704-3.385l-0.022,0.047c0.746-2.971,1.369-5.289,1.866-6.953c0.304-1.166,0.794-2.192,1.424-3.104
	l-0.023,0.023l11.689-25.621c0-0.746,0.623-1.368,1.867-1.866c1.243-0.498,3.002-1.12,5.272-1.867h1.656v1.657
	c5.194-0.747,8.354-1.12,9.474-1.12c1.377-0.327,2.986-0.537,4.62-0.537c2.029,0,3.99,0.304,5.833,0.84l-0.14-0.046
	c2.17,0.653,3.778,2.473,4.177,4.689v0.048h1.12v-2.218h0.56c1.33,0.256,2.475,0.91,3.337,1.867c0.7,0.816,1.12,1.891,1.12,3.058
	v0.093c0,1.072-0.21,2.1-0.584,3.033l0.023-0.047c-0.373,0.934-0.746,1.766-1.12,2.496c-0.42,0-0.793-0.116-1.144-0.279h0.023
	c-0.374-0.188-0.561-0.653-0.561-1.4h-1.004v3.338c-1.728,3.057-3.663,5.692-5.88,8.096l0.022-0.023
	c-1.026,1.283-2.473,2.193-4.13,2.497h-0.047c-0.816,1.144-1.634,2.146-2.521,3.08l0.023-0.022c-0.351,0.396-0.84,0.676-1.4,0.77
	h-0.023L347.783,87.602z M352.24,104.844v-1.727h1.12l2.216,1.656v0.094c0,0.279-0.116,0.561-0.279,0.747l-0.28,0.28
	c-0.325-0.328-0.699-0.606-1.097-0.84h-0.023c-0.325-0.164-0.699-0.281-1.119-0.281L352.24,104.844z M159.087,205.645l-1.12,0.56
	l-0.56,0.56c0,0.374,0.093,0.562,0.28,0.562h0.84h0.093c0.28,0,0.56-0.117,0.747-0.28c0.188-0.187,0.093-0.467-0.28-0.84V205.645z
	 M155.167,197.291v0.561h0.093c0.28,0,0.561-0.116,0.747-0.28c0.187-0.188,0.093-0.466-0.28-0.84v-0.561l-0.303,0.257
	c-0.188,0.21-0.279,0.468-0.279,0.746v0.094L155.167,197.291z M184.684,142.201l0.56-0.561h-0.56V142.201z M184.684,128.271
	l1.119-0.561l-0.56-1.12l-1.12,0.56v0.561L184.684,128.271z M477.446,169.921l-2.776-0.561v1.656l16.8-1.656V168.8l-13.37,1.12
	L477.446,169.921L477.446,169.921z M563.71,159.352v1.119h1.656v-0.561L563.71,159.352z M560.934,159.352
	c-2.239,0.677-4.971,1.261-7.771,1.633l-0.279,0.023l-8.634,1.119v0.561h1.656l1.12-0.561c6.314-0.373,10.213-0.652,11.689-0.84
	c1.479-0.188,2.217-0.652,2.217-1.4L560.934,159.352L560.934,159.352z M485.217,140.987l-1.12-0.56
	c-0.327,0.629-0.63,1.377-0.815,2.146l-0.023,0.069c-0.187,0.676-0.28,1.424-0.28,2.217v0.561c0.373,0,0.747-0.374,1.12-1.119
	c0.467-0.935,0.863-2.054,1.145-3.197l0.022-0.116H485.217L485.217,140.987z M470.19,132.635v-0.561h-0.562l-1.12,1.119l0.562,0.561
	h0.093c0.28,0,0.561-0.115,0.747-0.279c0.187-0.211,0.326-0.49,0.326-0.793c0-0.023,0-0.047,0-0.047H470.19L470.19,132.635z
	 M503.02,167.145v-1.12h-0.56v1.12H503.02z M571.503,151.559h0.562h0.093c0.28,0,0.561-0.117,0.747-0.28
	c0.187-0.21,0.279-0.468,0.279-0.746c0-0.022,0-0.07,0-0.095l-0.561-1.119c-0.093,0-0.21,0-0.326,0c-1.189,0-2.311,0.21-3.359,0.582
	l0.069-0.022c-0.934,0.374-1.952,0.747-3.057,1.121v-0.562l-3.337,0.562c0.022-0.094,0.022-0.188,0.022-0.28
	c0-0.421-0.116-0.793-0.304-1.119c-0.21-0.188-0.467-0.28-0.746-0.28c-0.022,0-0.07,0-0.094,0h-4.177
	c-0.561,0-1.026,0.374-1.399,1.12v-0.562H553.7l-1.12,0.562c0-0.373-0.094-0.562-0.28-0.562h-0.163l-0.561,0.562v-0.562h-3.896
	v1.121h2.777c0.373,0.373,0.653,0.56,0.84,0.56h0.84l1.12-0.56v0.56c-1.478,0.373-3.143,0.748-4.993,1.121
	c-1.681,0.35-3.616,0.56-5.601,0.56h-1.12c-0.023,0-0.046,0-0.093,0c-0.28,0-0.562-0.116-0.747-0.28
	c-0.188-0.209-0.279-0.467-0.279-0.746c0-0.023,0-0.07,0-0.094h3.896l1.655-0.84c0.327-0.163,0.7-0.279,1.12-0.279v-1.121
	c-1.852,0.374-3.718,0.654-5.6,0.84c-1.883,0.188-3.938,0.281-6.16,0.281h-0.561v-1.121c2.334-0.488,5.017-0.793,7.747-0.84h0.022
	c0,0.188,0.926-0.093,2.776-0.84v0.561h0.56l0.28-0.279c0.21-0.188,0.467-0.28,0.747-0.28h0.093h2.217h0.117
	c1.819,0,3.616-0.095,5.391-0.304l-0.21,0.023c1.797-0.211,3.405-0.49,4.97-0.887l-0.257,0.047v0.561l1.119-0.561h1.12
	c0-0.047-0.022-0.117-0.022-0.188c0-0.562,0.351-1.026,0.841-1.213c0.42-0.164,0.886-0.258,1.399-0.281v-1.119
	c-3.805,1.072-8.261,1.867-12.834,2.217l-0.232,0.023c-0.094,0-0.233,0-0.352,0c-2.146,0-4.223,0.209-6.253,0.605l0.21-0.023h-4.456
	c-0.373,0-0.561,0.095-0.561,0.281c0,0.186-0.187,0.278-0.56,0.278v-0.278c0-0.188-0.188-0.281-0.562-0.281l-10.594,2.218v-0.56
	l-5.6,1.118c-1.773,0.351-3.804,0.562-5.903,0.562c-0.07,0-0.163,0-0.233,0h0.023v0.094c0,0.141-0.047,0.256-0.14,0.35
	c-0.095,0.094-0.211,0.141-0.352,0.141c-0.022,0-0.068,0-0.093,0s-0.047,0-0.094,0c-0.141,0-0.258,0.047-0.351,0.14
	c-0.094,0.095-0.141,0.211-0.141,0.351v0.094c0-0.373-0.093-0.561-0.279-0.561h-4.714l-3.336,1.12v-0.562h-0.561
	c-0.653,0.352-1.4,0.562-2.218,0.562c-0.816,0-1.586,0.21-2.239,0.584l0.022-0.022c-0.373,0-0.373-0.094,0-0.28
	c0.374-0.187,0.374-0.28,0-0.28l-1.12,0.561h-4.993c-2.448,0.117-4.735,0.42-6.977,0.888l0.304-0.047
	c-0.327,0.163-0.699,0.278-1.12,0.278h-3.337v0.562l-4.177-0.815c-0.934-0.188-1.398-0.468-1.398-0.841
	c0.746-3.329,1.672-4.993,2.775-4.993h0.561l-0.561,1.119h0.561c0.327-0.326,0.699-0.605,1.097-0.84h0.023
	c0.326-0.141,0.561-0.467,0.561-0.84v-1.12h-1.12v-3.337l2.776-3.896v1.121h1.12v-1.121l-1.12-0.56
	c0.327-0.327,0.7-0.606,1.097-0.84h0.023c0.42-0.233,0.793-0.515,1.119-0.841v-0.56h-1.655v-1.12
	c0.979-1.586,1.913-3.43,2.683-5.344l0.094-0.256c0.653-1.587,1.236-3.454,1.634-5.391l0.047-0.209h1.12h0.094
	c0.279,0,0.56-0.117,0.746-0.28c0.187-0.21,0.279-0.468,0.279-0.747c0-0.023,0-0.07,0-0.094h-1.119v-1.12c0-0.023,0-0.048,0-0.095
	c0-0.279,0.115-0.56,0.279-0.746c0.188-0.164,0.326-0.373,0.373-0.606c0.7-0.7,1.26-1.517,1.634-2.45l0.022-0.046
	c0.327-0.747,0.537-1.587,0.561-2.497v-0.56h0.561v0.56c0.84-0.537,1.471-1.283,1.867-2.193v-0.022
	c0.605-1.33,1.097-2.87,1.376-4.457l0.022-0.116c1.853-3.732,3.718-7.816,5.602-12.25c1.608-3.617,3.313-8.236,4.76-12.974
	l0.257-0.957c2.66-6.37,5.507-14.606,7.91-23.03l0.42-1.727c0.746-3.516,1.485-6.768,2.217-9.754h-1.12v1.121
	c-0.022,0.442-0.232,0.84-0.561,1.119c0-0.022,0-0.047,0-0.093c0-0.14-0.047-0.257-0.141-0.35s-0.21-0.14-0.351-0.14
	c-0.022,0-0.069,0-0.093,0h-1.12v-0.561c0-1.493,0.326-2.939,0.887-4.223l-0.022,0.07c0.561-1.4,1.189-2.591,1.913-3.711
	l-0.047,0.094h0.561l1.12,3.896h1.12c0.022-0.887,0.115-1.75,0.303-2.59l-0.022,0.093c0.163-0.747,0.256-1.61,0.279-2.497
	l-0.279-0.279c-0.211-0.188-0.467-0.28-0.747-0.28c-0.022,0-0.069,0-0.094,0l-1.12,0.56v-5.6h-0.56
	c-0.327-0.327-0.606-0.7-0.84-1.098v-0.022c-0.233-0.42-0.515-0.793-0.841-1.12l-5.601,0.561c0-0.42-0.116-0.793-0.279-1.144v0.022
	c-0.141-0.326-0.467-0.56-0.84-0.56c0.373-0.374,0.863-0.653,1.376-0.84h0.023c0.56-0.187,1.579-0.467,3.057-0.84l1.12,0.56
	l1.12-1.119c0,0.373,0.093,0.56,0.28,0.56h0.278l1.12-0.56c0,0.373,0.094,0.56,0.28,0.56h1.05v-1.12h-6.16l-1.12,0.561v-0.561
	c-27.844,2.225-43.804,3.523-47.88,3.896h-5.6c0,0.373-0.094,0.561-0.28,0.561c-0.186,0-0.467,0.188-0.84,0.561l-1.656-0.561
	l-4.457,0.561h-4.992c-0.327,0.326-0.7,0.606-1.098,0.84h-0.022c-0.327,0.162-0.7,0.279-1.12,0.279l11.689-1.119
	c-0.327,0.326-0.699,0.606-1.097,0.84h-0.023c-0.442,0.187-0.934,0.279-1.471,0.279c-0.069,0-0.14,0-0.21,0h-0.56
	c-0.023,0-0.048,0-0.095,0c-0.278,0-0.56-0.117-0.746-0.279c-0.21-0.188-0.467-0.28-0.746-0.28c-0.023,0-0.07,0-0.094,0
	c-1.104,0.374-2.402,0.747-3.896,1.12l-4.456,1.119l-1.657-0.56l-19.481,2.776c-0.422,0-0.794-0.117-1.145-0.28h0.023
	c-0.327-0.163-0.7-0.28-1.12-0.28v0.28c0,0.187-0.188,0.28-0.562,0.28c-0.887,0.023-1.75,0.117-2.59,0.304l0.094-0.022
	c-0.934,0.187-1.772,0.467-2.566,0.862l0.047-0.022l-9.474,3.896l0.561,1.12c0.42,0,0.793-0.116,1.144-0.28H406.7
	c0.42-0.232,0.793-0.513,1.12-0.84l3.336,0.561l-0.561,2.777c-1.26,0.862-2.355,1.68-3.405,2.543l0.069-0.053
	c-1.025,0.816-1.656,2.077-1.656,3.477v0.141c-2.225,1.104-3.981,2.029-5.272,2.777c-1.291,0.746-1.913,1.299-1.867,1.656v0.561
	h0.562l1.655-0.561l1.12,1.657v2.216c0,0.747-7.605,17.072-22.818,48.977c-6.689,15.588-11.791,27.55-15.308,35.888
	c-3.516,8.338-5.461,13.253-5.834,14.746c-2.146,0.677-3.99,1.518-5.717,2.565l0.117-0.068c-1.261,0.677-2.217,1.727-2.777,3.01
	l-0.021,0.047c0,0.373,0.373,0.746,1.12,1.12c0.745,0.35,1.655,0.56,2.59,0.56h0.21v1.12l-1.12,2.218v2.217
	c0,1.478,3.344,2.402,10.033,2.775l0.279-0.279c0.211-0.188,0.467-0.279,0.746-0.279h0.095c-0.352,1.307-0.631,2.916-0.817,4.55
	l-0.022,0.163c-0.141,1.54-0.442,2.964-0.887,4.316l0.046-0.141h1.657c1.026-1.003,1.866-2.217,2.474-3.547l0.023-0.068
	c0.536-1.145,1.026-2.497,1.423-3.921l0.047-0.188h0.561c0.442,0.022,0.84,0.233,1.12,0.561c0.442,0.468,0.815,1.026,1.097,1.634
	l0.022,0.047c-3.242,5.67-6.253,12.297-8.655,19.203l-0.258,0.84l0.561,1.12h0.561c3.478-9.894,7.42-18.341,12.086-26.344
	l-0.396,0.724c8.167-0.746,22.089-2.231,41.767-4.456l1.12-0.562l0.562,0.562h1.655l1.12-1.12c0,0.373,0.093,0.56,0.28,0.56h0.279
	l15.026-1.118c0.141,0,0.304,0.021,0.489,0.021c1.377,0,2.66-0.42,3.733-1.143l-0.023,0.022c0.771-0.49,1.283-1.282,1.4-2.217
	v-0.022c0-0.373,0.552-0.748,1.655-1.121c1.587-0.467,3.478-0.862,5.438-1.097l0.163-0.022c0.42,0,0.793,0.117,1.144,0.279h-0.022
	c0.326,0.163,0.698,0.28,1.119,0.28l1.656-0.562c1.308-0.373,2.801-0.584,4.34-0.584c0.233,0,0.468,0,0.678,0.023h-0.023
	c0-0.068,0-0.14,0-0.209c0-0.934,0.21-1.82,0.584-2.613l-0.022,0.047c0.278-0.653,0.908-1.098,1.655-1.121v-1.118
	c-0.793,0-1.563,0.093-2.287,0.303l0.07-0.022c-0.84,0.209-1.587,0.514-2.286,0.862l0.069-0.022c-0.91-0.326-1.96-0.536-3.057-0.561
	c-1.098-0.023-2.146-0.232-3.127-0.583l0.069,0.023v0.093c0,0.141-0.047,0.257-0.14,0.352c-0.094,0.092-0.21,0.14-0.352,0.14
	c-0.021,0-0.068,0-0.093,0c-0.442,0.022-0.84,0.233-1.12,0.56l-10.594-0.56l-1.119,0.56c0-0.373-0.374-0.56-1.12-0.56h-0.561
	l-1.12,1.12c0-0.373-0.279-0.654-0.84-0.84c-0.653-0.188-1.399-0.28-2.17-0.28c-0.116,0-0.233,0-0.351,0h0.023l-1.12,0.56h-2.777
	v-0.56c13.362-1.478,20.044-3.345,20.044-5.601h0.094c0.279,0,0.561,0.116,0.747,0.279c0.187,0.21,0.279,0.467,0.279,0.747v0.094
	l3.896-0.561v-1.12l-31.733,0.561c0,0.373-0.094,0.561-0.279,0.561h-4.178c-0.069,0-0.14,0-0.21,0c-0.536,0-1.025,0.117-1.493,0.303
	H413c-0.42,0.234-0.793,0.514-1.12,0.84l-1.656-0.56c-1.587,0-3.127,0.21-4.597,0.583l0.116-0.023l-4.457,1.121
	c-0.793,0-1.563-0.094-2.286-0.304l0.07,0.022c-0.678-0.187-1.424-0.279-2.217-0.279h-2.218c-0.815,0-1.587,0.21-2.239,0.584
	l0.022-0.023l-7.232,0.561l-3.337-0.561c0.724-3.57,1.772-6.744,3.174-9.73l-0.117,0.258c2.038-5.196,5.289-12.43,9.754-21.7
	c0.84-2.474,1.773-4.597,2.893-6.604l-0.093,0.211c1.098-2.03,2.403-3.756,3.896-5.273h1.12c0.442,0.023,0.84,0.232,1.119,0.561
	l4.456-1.658h2.777c2.776,0,5.46-0.42,7.979-1.166l-0.211,0.047c3.128-0.91,5.693-1.844,8.215-2.94l-0.42,0.163
	c0,0.374,0.093,0.561,0.278,0.561h2.497l3.896-0.561l11.689-1.12c2.972-0.372,5.85-0.84,8.633-1.399
	c2.784-0.561,5.477-1.183,8.073-1.867l-0.56-1.12c-0.163,0.022-0.373,0.022-0.583,0.022c-0.725,0-1.4-0.093-2.077-0.256l0.07,0.023
	c-0.562-0.188-0.841-0.467-0.841-0.84c-0.022-0.747-0.467-1.377-1.097-1.657h-0.023c-0.862-0.351-1.866-0.56-2.916-0.56
	c-0.141,0-0.305,0-0.443,0.022h0.022v-1.12l2.776-1.119l8.914-0.561v-1.12h-5.601v-1.12l3.337-0.561h0.093
	c0.28,0,0.561-0.116,0.747-0.279c0.187-0.21,0.28-0.467,0.28-0.747c0-0.022,0-0.069,0-0.093c-0.188,0-0.421,0-0.653,0
	c-1.54,0-3.033-0.094-4.527-0.305l0.164,0.023c-1.104-0.188-1.657-0.467-1.657-0.84c-9.427,0.887-20.369,1.4-31.43,1.4
	c-4.993,0-9.986-0.094-14.934-0.304l0.7,0.023c-0.023,0-0.048,0-0.095,0c-0.278,0-0.56,0.116-0.746,0.28l-0.84,0.84l-1.657-1.656
	c3.617-9.824,8.493-18.293,14.584-25.76l-0.116,0.164c-0.023,0.513-0.116,0.979-0.28,1.423v-0.023
	c-0.188,0.537-0.466,1.026-0.84,1.4v0.56h1.12c1.681-3.477,3.242-6.3,4.946-9.029l-0.232,0.396c1.244-2.021,2.449-3.041,3.616-3.057
	c4.821-0.374,6.688-0.84,5.601-1.4c-1.09-0.561,3.367-1.579,13.369-3.057c0.42,0,0.794,0.115,1.144,0.279h-0.022
	c0.327,0.164,0.7,0.28,1.12,0.28c9.334-2.1,20.721-3.873,32.34-4.923l1.051-0.07v-1.656l-7.794,1.119v-1.119
	c0.42,0,0.794-0.117,1.144-0.28h-0.022c0.42-0.233,0.793-0.515,1.12-0.841v0.561c0.42,0,0.793-0.117,1.144-0.279h-0.022l0.514-0.328
	h3.336c1.004-0.047,1.96-0.256,2.847-0.582l-0.068,0.022c1.003-0.35,2.146-0.56,3.336-0.56l4.994-0.561l1.68-1.68v-0.561h-1.12
	c-0.07,0-0.14,0-0.21,0c-0.537,0-1.027-0.117-1.493-0.304h0.023c-0.443-0.187-0.935-0.28-1.472-0.28c-0.068,0-0.14,0-0.21,0
	c0-0.022,0-0.047,0-0.093c0-0.28,0.117-0.56,0.28-0.747c0.21-0.187,0.467-0.279,0.747-0.279h0.14l8.913-1.12l4.457-1.12v0.561h0.561
	h0.094c0.28,0,0.56-0.117,0.746-0.281c0.21-0.187,0.467-0.279,0.747-0.279h0.094h0.561l-1.12,2.216
	c-0.351,0.654-0.561,1.399-0.561,2.217l-1.12,0.56c0-0.42-0.117-0.793-0.279-1.144v0.023c-0.233-0.421-0.515-0.793-0.841-1.12
	h-0.561c-5.568,14.84-9.924,26.802-13.066,35.886c-3.142,9.084-7.317,19.382-12.529,30.894c-0.583,2.638-1.446,4.971-2.591,7.117
	l0.07-0.164c-0.561,1.168-1.189,2.17-1.89,3.104l0.021-0.047v0.094c0,0.28,0.117,0.56,0.28,0.747l0.28,0.28h0.56v1.12v0.209
	c0,1.308-0.21,2.591-0.583,3.781l0.023-0.095c-0.443,1.284-1.004,2.38-1.703,3.384l0.022-0.047
	c-2.225,6.689-4.092,11.885-5.601,15.588c-0.771,2.612-2.123,4.854-3.896,6.695l1.119,6.113v0.093c0,0.281-0.116,0.562-0.279,0.748
	l-0.28,0.278h-1.119c0.023-0.116,0.023-0.232,0.023-0.373c0-0.699-0.212-1.329-0.584-1.866c-0.396-0.351-0.935-0.56-1.493-0.56
	c-0.047,0-0.116,0-0.163,0h-0.562c-0.677,1.025-1.307,2.215-1.818,3.477l-0.047,0.14c-0.515,1.167-1.003,2.544-1.354,3.99
	l-0.047,0.187h1.12c0.677-0.326,1.236-0.793,1.656-1.375v-0.023c0.351-0.537,0.561-1.167,0.561-1.867h2.287l1.119,0.561
	c-0.42,0.443-0.699,1.004-0.84,1.634v0.022c-0.21,0.84-0.514,1.588-0.863,2.287l0.023-0.07l1.119,1.121l-1.656,3.335
	c0.816,0,1.587,0.21,2.239,0.584l-0.022-0.022c0.631,0.304,1.189,0.677,1.657,1.12c0.513-0.28,1.119-0.562,1.772-0.794l0.116-0.046
	c0.537-0.188,1.027-0.468,1.4-0.842h13.93l3.896-1.12h2.265h0.116c1.424,0,2.847-0.092,4.224-0.303l-0.163,0.023
	c1.213-0.188,2.637-0.28,4.06-0.28h0.117h1.12l1.12-0.56v0.56c0.513-0.022,0.979-0.116,1.423-0.28h-0.023
	c0.421-0.162,0.888-0.256,1.4-0.279h0.116c1.05,0,2.054,0.095,3.057,0.304l-0.093-0.022c0.746,0.164,1.609,0.256,2.496,0.279v0.561
	h-2.776v1.119c0.42,0,0.793-0.115,1.145-0.278h-0.023c0.326-0.164,0.7-0.28,1.12-0.28l0.279,0.28
	c0.188,0.21,0.279,0.467,0.279,0.746v0.094c-0.514,0.022-0.979,0.116-1.423,0.28h0.022c-0.561,0.187-1.189,0.278-1.843,0.278h-0.023
	l-0.561-0.56l-1.656,0.56l-1.12,0.562l-1.656-0.562v0.28c0,0.188-0.187,0.28-0.561,0.28v0.093c0,0.28,0.117,0.561,0.28,0.747
	c0.21,0.187,0.467,0.28,0.747,0.28h0.093h1.657l8.912-1.12l3.338-0.562l0.278,0.28c0.188,0.188,0.28,0.094,0.28-0.28l1.656-0.56
	h3.337h0.327c0.77,0,1.517-0.094,2.239-0.304l-0.069,0.022c1.283-0.326,2.894-0.63,4.525-0.815l0.188-0.023
	c0-0.373,0.094-0.561,0.28-0.561h0.279v0.561l11.199-2.24l-0.56,0.561c1.104-0.372,1.57-0.561,1.399-0.561
	c-0.172,0-0.265-0.187-0.28-0.56c0,0.373,0.094,0.56,0.28,0.56h1.866v-1.119h-3.896c-0.515,0.022-0.98,0.116-1.425,0.279h0.023
	c-0.42,0.164-0.887,0.257-1.399,0.28h-8.399v-0.56l4.457-0.562h1.655l1.12-0.562v0.562c2.823-0.351,6.09-0.562,9.38-0.562h0.373
	h-0.021c9.729-0.955,18.55-2.52,27.113-4.735l-1.215,0.257c0.048,0,0.117,0.023,0.188,0.023c0.561,0,1.027-0.352,1.214-0.842
	c0.188-0.56,0.466-1.578,0.84-3.057h-1.656c-1.283,0-2.544,0.117-3.757,0.304l0.141-0.022c-1.681,0.257-3.08,0.537-4.479,0.91
	l0.279-0.069l-0.279-0.28c-0.188-0.21-0.279-0.467-0.279-0.747c0-0.022,0-0.069,0-0.094v-0.56h4.105c0.816,0,1.587-0.211,2.24-0.584
	l-0.023,0.023l2.217-1.12v0.093c0,0.142-0.047,0.258-0.141,0.352c-0.093,0.093-0.21,0.14-0.35,0.14c-0.023,0-0.07,0-0.095,0
	L571.503,151.559z M367.313,154.895h-2.217c0.373-1.938,0.863-3.617,1.471-5.228l-0.069,0.231c0.653-1.819,1.283-3.313,1.983-4.735
	l-0.117,0.28l1.12,0.56c0,1.61-0.327,3.15-0.863,4.552l0.022-0.095c-0.442,1.166-0.887,2.638-1.26,4.153l-0.047,0.279h-0.023
	V154.895z M369.53,145.421v-0.56c0-0.023,0-0.047,0-0.094c0-0.28,0.116-0.562,0.28-0.746c0.396-0.328,0.862-0.607,1.353-0.817
	l0.047-0.022v1.119c0,0.373-0.232,0.7-0.56,0.84c-0.327,0.188-0.725,0.28-1.145,0.28c-0.022,0-0.022,0-0.047,0H369.53z
	 M395.663,165.464v0.562h-3.336v-0.562H395.663z M391.767,164.904c0,0.373-0.279,0.746-0.84,1.12
	c-0.724,0.442-1.54,0.815-2.427,1.097l-0.07,0.023l-3.896-0.562h-1.12v-1.12L391.767,164.904z M417.9,44.107h-2.218v-0.561
	c0-0.023,0-0.046,0-0.093c0-0.28,0.116-0.56,0.279-0.747c0.211-0.188,0.467-0.279,0.747-0.279h0.094h1.12l1.119,0.56v0.093
	c0,0.279-0.116,0.561-0.279,0.747c-0.21,0.187-0.467,0.28-0.747,0.28c-0.022,0-0.068,0-0.093,0H417.9z M447.394,38.507h0.561v1.12
	h-1.656c0-0.023,0-0.047,0-0.093c0-0.28,0.116-0.56,0.28-0.747c0.187-0.164,0.441-0.257,0.699-0.257h0.116V38.507z M440.16,41.309
	l-3.337-0.561v-0.561h0.117c1.423,0,2.847-0.092,4.223-0.303L441,39.907c1.377-0.21,2.59-0.7,3.64-1.423l-0.021,0.022V38.6
	c0,0.28,0.116,0.561,0.279,0.748c0.21,0.187,0.467,0.279,0.747,0.279h0.093v1.12h-1.656c-0.42,0-0.793-0.117-1.144-0.28
	l-0.536-0.279c-0.28,0.326-0.678,0.537-1.12,0.56h-1.19L440.16,41.309z M443.497,51.877v-0.561h4.993v0.561H443.497z M448.514,47.98
	v-0.56h2.217v0.56H448.514z M449.073,39.627h-0.561l0.561-1.12l5.601-0.56v0.56c-0.816,0.304-1.844,0.583-2.894,0.817l-0.163,0.023
	c-0.747,0.162-1.61,0.279-2.521,0.279H449.073z M451.85,51.316v-1.119h2.218h0.141c0.279,0,0.513,0.117,0.699,0.279
	c0.188,0.188,0.279,0.42,0.279,0.701v0.139H451.85z M465.78,31.834l-2.776,1.12h-6.091h0.117c1.818,0,3.616-0.093,5.39-0.304
	l-0.21,0.023c1.665-0.187,2.87-0.279,3.617-0.279L465.78,31.834z M462.98,45.227v0.561l-4.457,0.561v-0.561L462.98,45.227z
	 M469.677,48.587l-0.84-0.28c-0.747-0.279-1.354-0.56-1.937-0.887l0.068,0.046l-3.896,1.12h-3.337c-0.022,0-0.047,0-0.094,0
	c-0.279,0-0.561-0.117-0.747-0.279l-0.278-0.281h3.896l7.793-1.656h4.457v0.561c-1.104,0.373-2.03,0.652-2.776,0.84
	c-0.771,0.187-1.656,0.279-2.543,0.279c-0.07,0-0.163,0-0.233,0h0.023L469.677,48.587z M511.98,37.389h0.56
	c0.677-0.654,1.4-1.261,2.17-1.82l0.047-0.047c0.793-0.584,1.728-1.051,2.706-1.377l0.07-0.022c-0.351,3.01-1.236,5.74-2.566,8.19
	l0.07-0.116c-1.307,2.45-2.685,4.526-4.247,6.485l0.07-0.093l-2.777-1.12c0.631-1.283,1.284-2.847,1.797-4.457l0.07-0.257
	c0.56-1.664,1.025-3.235,1.398-4.713L511.98,37.389z M504.724,49.614h0.561c-0.303,0.63-0.677,1.19-1.12,1.655
	c-0.279,0.328-0.677,0.537-1.12,0.561v-1.656h0.84c0.352-0.07,0.631-0.257,0.864-0.514L504.724,49.614z M500.267,60.814
	c0-0.023,0-0.047,0-0.07c0-1.493,0.305-2.895,0.863-4.178l-0.022,0.07c0.63-1.399,1.471-2.613,2.496-3.617v0.561
	c-0.21,1.75-0.699,3.359-1.446,4.807l0.047-0.094c-0.42,0.7-0.887,1.307-1.399,1.867v2.217c-0.374,0.723-0.747,1.33-1.167,1.938
	l0.047-0.07c-0.304,0.396-0.514,0.863-0.561,1.4h-0.56l-0.606-3.174c0.443-0.022,0.84-0.232,1.12-0.56
	c0.326-0.28,0.536-0.677,0.56-1.12L500.267,60.814z M498.61,66.414c-0.374,1.104-0.653,2.029-0.841,2.777
	c-0.21,0.84-0.514,1.586-0.863,2.287l0.022-0.07l-0.56-0.561v-1.119c0.232-0.863,0.605-1.588,1.12-2.24
	c0.278-0.327,0.677-0.537,1.12-0.561L498.61,66.414L498.61,66.414z M464.66,163.854v-0.561h1.12v1.657l-0.562-0.28
	c-0.326-0.14-0.536-0.467-0.536-0.816c0-0.023,0-0.023,0-0.047L464.66,163.854z M512.54,164.975v-0.258
	c0-0.186-0.188-0.279-0.56-0.279l-2.777,0.562v-0.562h0.561l6.113-0.561v0.561h-0.023c-0.652,0-1.282,0.095-1.891,0.304l0.047-0.022
	c-0.396,0.141-0.863,0.211-1.354,0.211c-0.046,0-0.069,0-0.116,0V164.975L512.54,164.975z M509.74,156.061l-3.337,0.561v-0.561
	l3.337-0.561l2.775-0.561v0.561h0.561c0.794-0.232,1.728-0.443,2.707-0.561h0.069c0.631-0.069,1.189-0.28,1.681-0.561h-0.023
	l0.28,0.279c0.187,0.211,0.28,0.467,0.28,0.747v0.094L509.74,156.061z M522.55,155.501c-0.467-0.28-1.05-0.489-1.633-0.56h-0.023
	h-2.217v-0.562h3.337l0.561,0.562L522.55,155.501z M526.446,154.381v-0.561h0.094c0.28,0,0.56-0.116,0.747-0.279l0.279-0.279h0.561
	l0.56,0.279c0.327,0.141,0.562,0.467,0.562,0.84H526.446z M531.463,153.82v-0.561h2.217v0.561H531.463z M534.24,153.262v-0.561
	l0.56-0.561l1.12,1.119v-0.56l0.561,1.118L534.24,153.262z M576.007,148.244v-0.326c0-0.188-0.187-0.281-0.561-0.281
	c-0.373,0-0.466,0.094-0.279,0.281c0.188,0.186,0.093,0.279-0.28,0.279v0.561l-0.56,1.119l1.656-0.561L576.007,148.244z
	 M578.783,150.461h-0.536v1.119h2.776c0-0.373-0.28-0.561-0.841-0.561h-1.399V150.461L578.783,150.461z"/>
</svg>
