<?xml version="1.0" encoding="utf-8"?>
<!-- Generator: Adobe Illustrator 16.0.0, SVG Export Plug-In . SVG Version: 6.00 Build 0)  -->
<!DOCTYPE svg PUBLIC "-//W3C//DTD SVG 1.1//EN" "http://www.w3.org/Graphics/SVG/1.1/DTD/svg11.dtd">
<svg version="1.1" id="Layer_1" xmlns="http://www.w3.org/2000/svg" xmlns:xlink="http://www.w3.org/1999/xlink" x="0px" y="0px"
	 width="705.013px" height="808px" viewBox="461.487 0 705.013 808" enable-background="new 461.487 0 705.013 808"
	 xml:space="preserve">
<path fill="#111111" d="M757.979,544.358c-8.634-21.535-30.83-34.952-53.956-32.659l-68.148,6.799
	c-22.81-74.502-22.81-154.491,0.002-228.994l68.146,6.798c23.138,2.309,45.318-11.123,53.955-32.659l51.257-127.841
	c9.443-23.552,0.646-50.407-20.914-63.851L685.805,8.025c-20.852-13.002-47.552-9.963-64.932,7.379
	c-215.391,214.888-214.935,562.771,0,777.195c17.394,17.353,44.098,20.37,64.934,7.377l102.512-63.925
	c21.561-13.445,30.356-40.299,20.913-63.851L757.979,544.358z M761.493,693.235l-102.512,63.924
	c-0.741,0.467-1.707,0.357-2.325-0.264c-195.608-195.155-195.42-510.823,0-705.791c0.622-0.611,1.58-0.72,2.323-0.265
	l102.512,63.925c0.772,0.482,1.088,1.442,0.75,2.285l-51.256,127.837c-0.315,0.773-1.101,1.25-1.932,1.171L601.17,235.295
	c-45.171,124.72-43.46,217.418,0,337.408l107.885-10.763c0.832-0.084,1.619,0.392,1.931,1.168l51.256,127.841
	C762.58,691.792,762.265,692.756,761.493,693.235z M920.705,146.594l-9.429,9.036c-6.173,5.915-7.564,15.185-3.568,22.741
	c7.808,14.785,7.808,32.472,0,47.257c-3.997,7.556-2.604,16.826,3.568,22.741l9.429,9.036c8.855,8.486,23.307,6.488,29.54-4.073
	c18.672-31.637,18.672-71.028,0-102.665C944.011,140.106,929.559,138.108,920.705,146.594z M1067.647,5.292l-9.149,8.77
	c-7.196,6.898-7.854,18.194-1.468,25.848c78.412,93.958,78.348,230.301,0,324.182c-6.387,7.654-5.73,18.95,1.468,25.848l9.149,8.771
	c7.926,7.595,20.64,6.934,27.699-1.473c94.909-113,94.833-277.564,0-390.473C1088.287-1.643,1075.573-2.304,1067.647,5.292z
	 M994.738,75.628l-9.182,8.804c-6.943,6.658-7.887,17.51-2.027,25.142c41.877,54.546,41.874,130.309,0,184.852
	c-5.859,7.631-4.916,18.481,2.027,25.141l9.182,8.804c8.142,7.808,21.251,6.845,28.18-2.058c56.891-73.102,56.982-175.407,0-248.627
	C1015.989,68.784,1002.88,67.821,994.738,75.628z"/>
</svg>
